PathFileType  4	(X/Y/Z) D:\Research_projects\MuscleProsody\BulkSports2Dtrack\RetrackedSports2D\p1_sample60_cam2\p1_sample60_cam2_Sports2D\pose-3d
DataRate	CameraRate	NumFrames	NumMarkers	Units	OrigDataRate	OrigDataStartFrame	OrigNumFrames
60.0	60.0	10	22	m	60.0	585	780
Frame#	Time	Hip			RHip			RKnee			RAnkle			RBigToe			RSmallToe			RHeel			LHip			LKnee			LAnkle			LBigToe			LSmallToe			LHeel			Neck			Head			Nose			RShoulder			RElbow			RWrist			LShoulder			LElbow			LWrist			
		X1	Y1	Z1	X2	Y2	Z2	X3	Y3	Z3	X4	Y4	Z4	X5	Y5	Z5	X6	Y6	Z6	X7	Y7	Z7	X8	Y8	Z8	X9	Y9	Z9	X10	Y10	Z10	X11	Y11	Z11	X12	Y12	Z12	X13	Y13	Z13	X14	Y14	Z14	X15	Y15	Z15	X16	Y16	Z16	X17	Y17	Z17	X18	Y18	Z18	X19	Y19	Z19	X20	Y20	Z20	X21	Y21	Z21	X22	Y22	Z22	

586	9.7500000	0.8603405	0.8788222	0.0301000	0.7690943	0.8895089	0.0301000	0.7527331	0.4866321	0.1290000	0.7585558	0.1214385	0.0230000	0.7565626	-0.0160163	0.2179000	0.7032425	0.0118580	0.1804000	0.7800685	0.0988935	-0.0119000	0.9589638	0.8822667	0.0301000	0.9279625	0.4728497	0.1290000	0.9254055	0.1169918	0.0230000	0.9044849	-0.0171060	0.2179000	0.9632663	-0.0011415	0.1804000	0.9164132	0.1029684	-0.0119000	0.8845026	1.5034504	0.0008000	0.8693905	1.7902362	0.0655000	0.8345763	1.6141955	0.1076000	0.7155904	1.4037730	-0.0127500	0.6508637	1.1175750	0.0702000	0.8014871	1.1676558	0.1076000	1.0608170	1.3976013	-0.0127500	1.0581106	1.0970837	0.0702000	0.7954879	1.0123984	0.1076000
587	9.7666667	0.8600278	0.8782252	0.0301000	0.7687703	0.8890120	0.0301000	0.7522351	0.4857053	0.1290000	0.7585816	0.1207200	0.0230000	0.7564203	-0.0157557	0.2179000	0.7033364	0.0118824	0.1804000	0.7800691	0.0982790	-0.0119000	0.9583679	0.8818352	0.0301000	0.9276444	0.4721659	0.1290000	0.9255634	0.1165814	0.0230000	0.9044539	-0.0172661	0.2179000	0.9632626	-0.0012457	0.1804000	0.9168313	0.1028217	-0.0119000	0.8844471	1.5036050	0.0008000	0.8687498	1.7901212	0.0655000	0.8340220	1.6140307	0.1076000	0.7158674	1.4035812	-0.0127500	0.6513823	1.1179431	0.0702000	0.7948165	1.1668288	0.1076000	1.0609516	1.3972393	-0.0127500	1.0625494	1.0976284	0.0702000	0.8079788	1.0111349	0.1076000
588	9.7833333	0.8597605	0.8773186	0.0301000	0.7683914	0.8880503	0.0301000	0.7518472	0.4840886	0.1290000	0.7586207	0.1197926	0.0230000	0.7562194	-0.0154196	0.2179000	0.7035902	0.0119294	0.1804000	0.7799298	0.0975233	-0.0119000	0.9577007	0.8809884	0.0301000	0.9273674	0.4709920	0.1290000	0.9257391	0.1158963	0.0230000	0.9044844	-0.0173180	0.2179000	0.9631825	-0.0013296	0.1804000	0.9173740	0.1024520	-0.0119000	0.8843657	1.5037625	0.0008000	0.8680993	1.7899050	0.0655000	0.8334758	1.6138933	0.1076000	0.7159415	1.4033075	-0.0127500	0.6510339	1.1185110	0.0702000	0.7801755	1.1654810	0.1076000	1.0612547	1.3967612	-0.0127500	1.0686971	1.0987665	0.0702000	0.8285912	1.0098882	0.1076000
589	9.8000000	0.8595428	0.8761429	0.0301000	0.7679749	0.8865996	0.0301000	0.7515751	0.4818012	0.1290000	0.7586420	0.1187403	0.0230000	0.7559772	-0.0150324	0.2179000	0.7039841	0.0119941	0.1804000	0.7796225	0.0966832	-0.0119000	0.9569724	0.8796936	0.0301000	0.9271349	0.4693033	0.1290000	0.9259169	0.1149957	0.0230000	0.9045738	-0.0172352	0.2179000	0.9630180	-0.0013905	0.1804000	0.9179843	0.1018978	-0.0119000	0.8842756	1.5038935	0.0008000	0.8674632	1.7895932	0.0655000	0.8329567	1.6138060	0.1076000	0.7158026	1.4029643	-0.0127500	0.6498131	1.1193792	0.0702000	0.7583477	1.1636176	0.1076000	1.0617311	1.3961935	-0.0127500	1.0762178	1.1005252	0.0702000	0.8568856	1.0089542	0.1076000
590	9.8166667	0.8593694	0.8747671	0.0301000	0.7675353	0.8846790	0.0301000	0.7514064	0.4788855	0.1290000	0.7586102	0.1176635	0.0230000	0.7557150	-0.0146215	0.2179000	0.7044877	0.0120680	0.1804000	0.7791145	0.0958306	-0.0119000	0.9561780	0.8779548	0.0301000	0.9269458	0.4670891	0.1290000	0.9260737	0.1139672	0.0230000	0.9047148	-0.0169982	0.2179000	0.9627709	-0.0014282	0.1804000	0.9186007	0.1012179	-0.0119000	0.8841963	1.5039465	0.0008000	0.8668651	1.7891992	0.0655000	0.8324895	1.6137846	0.1076000	0.7154537	1.4025643	-0.0127500	0.6477538	1.1206369	0.0702000	0.7304566	1.1613254	0.1076000	1.0623671	1.3955720	-0.0127500	1.0847298	1.1029214	0.0702000	0.8921615	1.0086870	0.1076000
591	9.8333333	0.8592280	0.8732770	0.0301000	0.7670817	0.8823574	0.0301000	0.7513226	0.4754155	0.1290000	0.7585017	0.1166747	0.0230000	0.7554668	-0.0142033	0.2179000	0.7050634	0.0121377	0.1804000	0.7783816	0.0950406	-0.0119000	0.9553061	0.8758216	0.0301000	0.9267964	0.4643738	0.1290000	0.9261885	0.1129293	0.0230000	0.9048931	-0.0165947	0.2179000	0.9624682	-0.0014398	0.1804000	0.9191642	0.1004839	-0.0119000	0.8841441	1.5038660	0.0008000	0.8663320	1.7887469	0.0655000	0.8320997	1.6138294	0.1076000	0.7149065	1.4021133	-0.0127500	0.6449179	1.1223358	0.0702000	0.6978444	1.1587772	0.1076000	1.0631282	1.3949381	-0.0127500	1.0938469	1.1059510	0.0702000	0.9333834	1.0094189	0.1076000
592	9.8500000	0.8591077	0.8717659	0.0301000	0.7666180	0.8797577	0.0301000	0.7513040	0.4715141	0.1290000	0.7583104	0.1158876	0.0230000	0.7552646	-0.0137901	0.2179000	0.7056593	0.0121789	0.1804000	0.7774223	0.0943675	-0.0119000	0.9543624	0.8733965	0.0301000	0.9266837	0.4612368	0.1290000	0.9262519	0.1120205	0.0230000	0.9050838	-0.0160314	0.2179000	0.9621588	-0.0014230	0.1804000	0.9196356	0.0997589	-0.0119000	0.8841283	1.5036087	0.0008000	0.8658894	1.7882678	0.0655000	0.8318034	1.6139272	0.1076000	0.7141800	1.4016187	-0.0127500	0.6413887	1.1244680	0.0702000	0.6619504	1.1562113	0.1076000	1.0639611	1.3943366	-0.0127500	1.1032008	1.1095578	0.0702000	0.9791261	1.0113856	0.1076000
593	9.8666667	0.8590063	0.8703191	0.0301000	0.7661468	0.8770493	0.0301000	0.7513275	0.4673626	0.1290000	0.7580419	0.1154009	0.0230000	0.7551238	-0.0134059	0.2179000	0.7062133	0.0121592	0.1804000	0.7762640	0.0938391	-0.0119000	0.9533819	0.8708293	0.0301000	0.9266079	0.4578233	0.1290000	0.9262684	0.1113745	0.0230000	0.9052575	-0.0153468	0.2179000	0.9618990	-0.0013821	0.1804000	0.9200071	0.0990888	-0.0119000	0.8841494	1.5031498	0.0008000	0.8655511	1.7877969	0.0655000	0.8316005	1.6140573	0.1076000	0.7133063	1.4011027	-0.0127500	0.6372831	1.1269529	0.0702000	0.6241770	1.1538688	0.1076000	1.0648013	1.3938156	-0.0127500	1.1124599	1.1135960	0.0702000	1.0276470	1.0146638	0.1076000
594	9.8833333	0.8589245	0.8689968	0.0301000	0.7656728	0.8744169	0.0301000	0.7513707	0.4631806	0.1290000	0.7577088	0.1152834	0.0230000	0.7550526	-0.0130812	0.2179000	0.7066768	0.0120571	0.1804000	0.7749589	0.0934773	-0.0119000	0.9524195	0.8682833	0.0301000	0.9265705	0.4543314	0.1290000	0.9262531	0.1110902	0.0230000	0.9053907	-0.0146029	0.2179000	0.9617346	-0.0013285	0.1804000	0.9202925	0.0985100	-0.0119000	0.8842007	1.5024866	0.0008000	0.8653159	1.7873703	0.0655000	0.8314769	1.6141920	0.1076000	0.7123348	1.4006010	-0.0127500	0.6327777	1.1296431	0.0702000	0.5857914	1.1519125	0.1076000	1.0655828	1.3934217	-0.0127500	1.1213577	1.1178208	0.0702000	1.0770851	1.0191354	0.1076000
595	9.9000000	0.8588599	0.8678298	0.0301000	0.7652084	0.8720191	0.0301000	0.7514142	0.4591894	0.1290000	0.7573300	0.1155599	0.0230000	0.7550645	-0.0128362	0.2179000	0.7070263	0.0118773	0.1804000	0.7735772	0.0933094	-0.0119000	0.9515316	0.8658960	0.0301000	0.9265720	0.4509775	0.1290000	0.9262244	0.1112154	0.0230000	0.9054751	-0.0138627	0.2179000	0.9616899	-0.0012770	0.1804000	0.9205033	0.0980555	-0.0119000	0.8842673	1.5016449	0.0008000	0.8651697	1.7870183	0.0655000	0.8314072	1.6142955	0.1076000	0.7113216	1.4001502	-0.0127500	0.6281109	1.1323416	0.0702000	0.5479398	1.1503945	0.1076000	1.0662476	1.3931903	-0.0127500	1.1297010	1.1219265	0.0702000	1.1256369	1.0244969	0.1076000
